<svg width="360" height="240" viewBox="0 0 360 240" fill="none" xmlns="http://www.w3.org/2000/svg">
<mask id="mask0_101_1050" style="mask-type:luminance" maskUnits="userSpaceOnUse" x="198" y="0" width="163" height="240">
<path d="M360.001 120C360.001 186.266 332.473 240 287.787 240C243.1 240 198.148 186.266 198.148 120C198.148 53.7337 243.1 -1.90735e-06 287.787 -1.90735e-06C332.473 -1.90735e-06 360.001 53.7337 360.001 120Z" fill="white"/>
</mask>
<g mask="url(#mask0_101_1050)">
<path d="M360.001 120C360.001 186.266 332.473 240 287.787 240C243.1 240 198.148 186.266 198.148 120C198.148 53.7337 243.1 -1.90735e-06 287.787 -1.90735e-06C332.473 -1.90735e-06 360.001 53.7337 360.001 120Z" fill="white"/>
<path d="M285.694 120.51C285.694 164.454 267.442 200.106 237.794 200.106C208.147 200.106 178.333 164.486 178.333 120.51C178.333 76.5347 208.147 40.9142 237.794 40.9142C267.442 40.9142 285.694 76.5347 285.694 120.51Z" fill="black"/>
</g>
<mask id="mask1_101_1050" style="mask-type:luminance" maskUnits="userSpaceOnUse" x="0" y="0" width="162" height="241">
<path d="M161.853 120C161.853 186.266 134.326 240 89.6387 240C44.9519 240 0 186.266 0 120C0 53.7339 44.9519 0.000144958 89.6387 0.000144958C134.326 0.000144958 161.853 53.7339 161.853 120Z" fill="white"/>
</mask>
<g mask="url(#mask1_101_1050)">
<path d="M161.853 120C161.853 186.266 134.326 240 89.6387 240C44.9519 240 0 186.266 0 120C0 53.7339 44.9519 0.000144958 89.6387 0.000144958C134.326 0.000144958 161.853 53.7339 161.853 120Z" fill="white"/>
<path d="M87.5464 120.51C87.5464 164.454 69.294 200.106 39.6463 200.106C9.99862 200.106 -19.8147 164.486 -19.8147 120.51C-19.8147 76.5349 9.99862 40.9144 39.6463 40.9144C69.294 40.9144 87.5464 76.5349 87.5464 120.51Z" fill="black"/>
</g>
</svg>
