<svg fill="none" height="240" viewBox="0 0 360 240" width="360" xmlns="http://www.w3.org/2000/svg" xmlns:xlink="http://www.w3.org/1999/xlink"><mask id="a" height="240" maskUnits="userSpaceOnUse" width="163" x="198" y="0"><path d="m360.001 120c0 66.266-27.528 120-72.214 120-44.687 0-89.639-53.734-89.639-120 0-66.2663 44.952-120 89.639-120 44.686 0 72.214 53.7337 72.214 120z" fill="#fff"/></mask><mask id="b" height="241" maskUnits="userSpaceOnUse" width="162" x="0" y="0"><path d="m161.853 120c0 66.266-27.527 120-72.2143 120-44.6868 0-89.6387-53.734-89.6387-120 0-66.2661 44.9519-119.99987793 89.6387-119.99987793 44.6873 0 72.2143 53.73377793 72.2143 119.99987793z" fill="#fff"/></mask><g mask="url(#a)"><path d="m360.001 120c0 66.266-27.528 120-72.214 120-44.687 0-89.639-53.734-89.639-120 0-66.2663 44.952-120 89.639-120 44.686 0 72.214 53.7337 72.214 120z" fill="#fff"/><path d="m325.324 63.0543c0 43.9437-18.253 79.5957-47.9 79.5957-29.648 0-59.461-35.62-59.461-79.5957 0-43.9755 29.813-79.596 59.461-79.596 29.647 0 47.9 35.6205 47.9 79.596z" fill="#000"/></g><g mask="url(#b)"><path d="m161.853 120c0 66.266-27.527 120-72.2143 120-44.6868 0-89.6387-53.734-89.6387-120 0-66.2661 44.9519-119.99987793 89.6387-119.99987793 44.6873 0 72.2143 53.73377793 72.2143 119.99987793z" fill="#fff"/><path d="m127.176 63.0544c0 43.9436-18.253 79.5956-47.9003 79.5956-29.6477 0-59.461-35.62-59.461-79.5956 0-43.9755 29.8133-79.596 59.461-79.596 29.6473 0 47.9003 35.6205 47.9003 79.596z" fill="#000"/></g></svg>