<svg width="360" height="240" viewBox="0 0 360 240" fill="none" xmlns="http://www.w3.org/2000/svg">
<mask id="mask0_101_1051" style="mask-type:luminance" maskUnits="userSpaceOnUse" x="198" y="0" width="163" height="240">
<path d="M360.001 120C360.001 186.266 332.473 240 287.787 240C243.1 240 198.148 186.266 198.148 120C198.148 53.7337 243.1 0 287.787 0C332.473 0 360.001 53.7337 360.001 120Z" fill="white"/>
</mask>
<g mask="url(#mask0_101_1051)">
<path d="M360.001 120C360.001 186.266 332.473 240 287.787 240C243.1 240 198.148 186.266 198.148 120C198.148 53.7337 243.1 0 287.787 0C332.473 0 360.001 53.7337 360.001 120Z" fill="white"/>
<path d="M345.138 177.966C345.138 221.91 326.886 257.562 297.238 257.562C267.591 257.562 237.777 221.942 237.777 177.966C237.777 133.991 267.591 98.3702 297.238 98.3702C326.886 98.3702 345.138 133.991 345.138 177.966Z" fill="black"/>
</g>
<mask id="mask1_101_1051" style="mask-type:luminance" maskUnits="userSpaceOnUse" x="0" y="0" width="162" height="241">
<path d="M161.853 120C161.853 186.266 134.326 240 89.6387 240C44.9519 240 0 186.266 0 120C0 53.7339 44.9519 0.00012207 89.6387 0.00012207C134.326 0.00012207 161.853 53.7339 161.853 120Z" fill="white"/>
</mask>
<g mask="url(#mask1_101_1051)">
<path d="M161.853 120C161.853 186.266 134.326 240 89.6387 240C44.9519 240 0 186.266 0 120C0 53.7339 44.9519 0.00012207 89.6387 0.00012207C134.326 0.00012207 161.853 53.7339 161.853 120Z" fill="white"/>
<path d="M146.99 177.966C146.99 221.91 128.738 257.562 99.0904 257.562C69.4427 257.562 39.6294 221.942 39.6294 177.966C39.6294 133.991 69.4427 98.3704 99.0904 98.3704C128.738 98.3704 146.99 133.991 146.99 177.966Z" fill="black"/>
</g>
</svg>
