<svg width="228" height="160" viewBox="0 0 228 160" fill="none" xmlns="http://www.w3.org/2000/svg">
<path d="M0.0750265 31.2642L39.9763 20.5403L39.8351 65.867L76.3249 56.0551L76.4661 10.7284L116.367 0L116.292 128.369L76.3911 139.093L76.3469 93.0842L39.8572 102.892L39.9013 148.9L0 159.629L0.0750265 31.2598V31.2642Z" fill="white"/>
<path d="M126.086 81.55C122.246 67.1776 124.559 51.8886 131.925 39.0925C139.162 26.5088 151.286 16.4667 167.315 12.1586C196.642 4.27276 218.983 18.8046 225.47 43.0951C229.31 57.4676 226.993 72.7565 219.631 85.5527C212.394 98.1319 200.27 108.178 184.241 112.487C154.914 120.372 132.573 105.841 126.086 81.55ZM187.515 72.7388C190.384 67.7488 191.174 61.1204 189.44 54.6205C187.339 46.7524 180.887 42.4354 173.384 44.45C169.293 45.5481 166.168 48.2224 164.045 51.9107C161.172 56.9008 160.386 63.5291 162.121 70.029C164.222 77.8971 170.674 82.2142 178.177 80.1995C182.268 79.1015 185.393 76.4271 187.515 72.7388Z" fill="white"/>
</svg>
