<svg width="360" height="240" viewBox="0 0 360 240" fill="none" xmlns="http://www.w3.org/2000/svg">
<mask id="mask0_101_1049" style="mask-type:luminance" maskUnits="userSpaceOnUse" x="198" y="0" width="163" height="240">
<path d="M360.001 120C360.001 186.266 332.473 240 287.787 240C243.1 240 198.148 186.266 198.148 120C198.148 53.7337 243.1 0 287.787 0C332.473 0 360.001 53.7337 360.001 120Z" fill="white"/>
</mask>
<g mask="url(#mask0_101_1049)">
<path d="M360.001 120C360.001 186.266 332.473 240 287.787 240C243.1 240 198.148 186.266 198.148 120C198.148 53.7337 243.1 0 287.787 0C332.473 0 360.001 53.7337 360.001 120Z" fill="white"/>
<path d="M387.066 120.51C387.066 164.454 368.814 200.106 339.166 200.106C309.518 200.106 279.705 164.486 279.705 120.51C279.705 76.5347 309.518 40.9142 339.166 40.9142C368.814 40.9142 387.066 76.5347 387.066 120.51Z" fill="black"/>
</g>
<mask id="mask1_101_1049" style="mask-type:luminance" maskUnits="userSpaceOnUse" x="0" y="0" width="162" height="241">
<path d="M161.853 120C161.853 186.266 134.326 240 89.6387 240C44.9519 240 0 186.266 0 120C0 53.7339 44.9519 0.00012207 89.6387 0.00012207C134.326 0.00012207 161.853 53.7339 161.853 120Z" fill="white"/>
</mask>
<g mask="url(#mask1_101_1049)">
<path d="M161.853 120C161.853 186.266 134.326 240 89.6387 240C44.9519 240 0 186.266 0 120C0 53.7339 44.9519 0.00012207 89.6387 0.00012207C134.326 0.00012207 161.853 53.7339 161.853 120Z" fill="white"/>
<path d="M188.918 120.51C188.918 164.454 170.666 200.106 141.018 200.106C111.37 200.106 81.5571 164.486 81.5571 120.51C81.5571 76.5348 111.37 40.9143 141.018 40.9143C170.666 40.9143 188.918 76.5348 188.918 120.51Z" fill="black"/>
</g>
</svg>
