<svg width="327" height="305" viewBox="0 0 327 305" fill="none" xmlns="http://www.w3.org/2000/svg">
<g clip-path="url(#clip0_21_284)">
<path d="M0.0750273 59.6504L39.9763 48.922L39.8351 94.2487L76.3249 84.4413L76.4661 39.1146L116.367 28.3862L116.292 156.755L76.3911 167.479L76.3469 121.47L39.8572 131.282L39.9013 177.291L0 188.015L0.0750273 59.6504Z" fill="white"/>
<path d="M161.15 104.357C163.67 111.747 169.774 115.427 178.468 113.084C184.775 111.388 190.062 107.218 195.217 100.514L218.374 115.373C210.315 127.625 198.906 136.923 182.537 141.324C154.23 148.936 132.406 137.016 125.874 112.553C121.853 97.4987 123.8 80.8416 131.541 67.3901C138.779 54.8109 150.606 45.03 167.315 40.5359C198.01 32.287 213.815 50.4053 219.067 70.0777C220.713 76.2367 221.287 82.4975 221 88.2624L161.15 104.353V104.357ZM158.965 86.6109L185.225 79.5531C185.37 78.0477 185.176 76.6308 184.81 75.2626C183.437 70.1309 178.411 66.3496 172.099 68.0454C168.52 69.0062 164.623 71.5212 162.002 76.0773C160.378 78.8978 159.279 82.3116 158.965 86.6109Z" fill="white"/>
<path d="M216.507 29.7012L255.724 19.1588L272.076 67.3857L286.759 10.817L327 0L293.613 105.601C284.994 132.854 273.113 144.481 252.648 149.985C240.542 153.239 231.331 152.965 223.153 150.397L230.528 117.795C237.206 120.217 242.735 120.381 247.506 119.097C249.722 118.499 251.509 117.654 253.372 116.423L216.502 29.7057L216.507 29.7012Z" fill="white"/>
<path d="M76.4617 176.631L116.363 165.907L116.222 211.234L152.712 201.422L152.853 156.095L192.754 145.367L192.679 273.736L152.778 284.46L152.734 238.451L116.244 248.259L116.288 294.267L76.3867 304.996L76.4617 176.627V176.631Z" fill="white"/>
<path d="M202.472 226.917C198.633 212.544 200.945 197.256 208.311 184.459C215.549 171.876 227.673 161.834 243.702 157.525C273.029 149.64 295.369 164.172 301.857 188.462C305.697 202.834 303.38 218.123 296.018 230.92C288.78 243.499 276.657 253.545 260.627 257.853C231.3 265.739 208.96 251.207 202.472 226.917ZM263.902 218.106C266.771 213.116 267.561 206.487 265.826 199.987C263.725 192.119 257.273 187.802 249.77 189.817C245.679 190.915 242.555 193.589 240.432 197.278C237.559 202.268 236.773 208.896 238.507 215.396C240.608 223.264 247.061 227.581 254.563 225.566C258.654 224.468 261.779 221.794 263.902 218.106Z" fill="white"/>
</g>
<defs>
<clipPath id="clip0_21_284">
<rect width="327" height="305" fill="white"/>
</clipPath>
</defs>
</svg>
