<svg width="530" height="510" viewBox="0 0 53 51" fill="none" xmlns="http://www.w3.org/2000/svg">
<path d="M49.8579 27.4971C46.9149 22.621 42.5881 18.2811 38.5917 14.0914C33.4302 8.82083 28.0533 3.20374 20.9287 0.878692C10.9762 -2.50245 0.491274 4.24993 0.0105109 14.6937C-0.293304 23.2678 6.04175 29.8965 12.1915 35.2693C14.5085 37.2841 16.8823 39.2346 19.2694 41.1702C23.3909 44.4788 27.6727 47.7741 32.5037 49.6404C35.7088 50.883 39.2728 51.416 42.6415 50.6322C46.4225 49.7889 49.7478 47.2395 51.5039 43.822C54.2482 38.5564 52.9295 32.5251 49.8746 27.5252L49.8579 27.4971Z" fill="#FFCC00"/>
</svg>
