<svg fill="none" height="332" viewBox="0 0 398 332" width="398" xmlns="http://www.w3.org/2000/svg"><g fill="#fff"><path d="m.960776 88.3884 40.294124-10.8156v92.4592l54.9258-14.75-.0713 37.002-95.22439 25.569z"/><path d="m135.378 141.064c2.545 7.453 8.705 11.164 17.489 8.806 6.369-1.71 11.708-5.917 16.914-12.678l23.385 14.987c-8.139 12.356-19.659 21.733-36.19 26.172-28.586 7.676-50.625-4.345-57.2209-29.017-4.0602-15.183-2.0947-31.982 5.7229-45.548 7.313-12.687 19.253-22.5514 36.131-27.0839 30.993-8.3193 46.957 9.9536 52.261 29.7939 1.662 6.212 2.242 12.526 1.952 18.34l-60.439 16.228zm-2.201-17.902 26.518-7.119c.147-1.518-.049-2.947-.419-4.327-1.386-5.175-6.462-8.989-12.836-7.278-3.614.969-7.55 3.505-10.197 8.1-1.64 2.845-2.75 6.287-3.066 10.624z"/><path d="m209.807 136.429c-1.06-3.97-1.524-8.467-1.613-13.62l-.058-29.2004-11.022 2.9606.018-32.3662 11.022-2.9562.049-25.3464 39.091-10.494-.049 25.3464 21.695-5.8231-.017 32.3662-21.696 5.8231.062 21.618c-.031 3.335.223 5.671.731 7.569 1.061 3.97 4.025 5.39 9.538 3.912 3.097-.831 5.718-2.09 10.812-5.122l.098 34.183c-6.253 3.528-12.519 6.319-19.066 8.078-22.039 5.917-34.977.331-39.59-16.924z"/><path d="m272.426 63.493c11.249-4.5191 16.552-10.7709 16.606-19.2688l-14.102 3.7868.058-38.29651 35.958-9.6544924.018 33.6121024c-.161 20.5147-6.944 33.6523-34.157 42.4584l-4.377-12.6375z"/><path d="m308.615 120.813 11.222-27.0526c10.237 4.4655 26.487 6.5736 37.166 3.7064 3.962-1.0628 5.094-3.0321 4.635-4.7558-.829-3.1035-4.172-3.8716-17.034-5.0416-16.629-1.4513-28.979-5.5328-32.945-20.3718-5.027-18.8044 6.797-38.0687 35.039-45.6512 18.942-5.0862 36.479-3.693 47.889 1.0137l-11.222 27.0522c-8.571-3.0633-21.964-4.8272-31.26-2.331-4.306 1.1566-5.875 2.8713-5.366 4.7692.69 2.5855 3.035 3.0678 15.679 4.1128 16.41 1.3262 29.874 4.7379 34.304 21.3006 4.198 15.7008-1.93 36.9481-33.614 45.4551-21.352 5.733-40.588 3.501-54.48-2.202z"/><path d="m91.1801 277.383c-5.1209-19.152-2.5493-38.519 6.9036-54.926 10.0863-17.5 28.2203-31.803 53.3613-38.551 22.73-6.104 44.818-1.491 55.804 6.471l-18.219 32.63c-8.598-4.533-20.127-6.248-30.802-3.381-11.364 3.05-19.431 9.472-23.968 17.344-4.662 8.092-5.754 17.818-3.125 27.651 4.016 15.009 16.847 19.519 29.415 16.143 4.306-1.157 7.564-2.769 9.997-4.72l.499-14.004-19.801 5.318-.379-27.637 58.028-15.58-.749 66.219c-9.988 10.262-25.605 20.189-43 24.86-29.963 8.042-63.826.121-73.9738-37.837z"/><path d="m217.919 253.712c-3.878-14.491-1.542-29.915 5.896-42.82 7.314-12.692 19.552-22.819 35.739-27.164 29.616-7.953 52.176 6.702 58.728 31.2 3.877 14.496 1.537 29.915-5.897 42.82-7.309 12.687-19.552 22.815-35.739 27.164-29.62 7.953-52.176-6.702-58.727-31.205zm62.034-8.887c2.902-5.033 3.695-11.717 1.943-18.273-2.121-7.935-8.637-12.289-16.214-10.257-4.131 1.112-7.286 3.804-9.43 7.524-2.902 5.033-3.695 11.718-1.943 18.273 2.121 7.936 8.637 12.289 16.214 10.253 4.131-1.107 7.286-3.805 9.43-7.524z"/></g></svg>