<svg width="333" height="358" viewBox="0 0 333 358" fill="none" xmlns="http://www.w3.org/2000/svg">
<path d="M104.586 85.8295C101.017 79.8709 95.769 74.5677 90.9222 69.448C84.6622 63.0075 78.1411 56.1435 69.5003 53.3024C57.4298 49.1707 44.7135 57.422 44.1304 70.184C43.762 80.6614 51.4452 88.7614 58.9037 95.3269C61.7138 97.789 64.5927 100.172 67.4878 102.538C72.4865 106.581 77.6795 110.607 83.5386 112.888C87.4258 114.406 91.7482 115.058 95.8338 114.1C100.419 113.07 104.452 109.954 106.582 105.778C109.911 99.3436 108.311 91.9736 104.606 85.8638L104.586 85.8295Z" fill="#6155F5"/>
<mask id="mask0_190_1579" style="mask-type:luminance" maskUnits="userSpaceOnUse" x="59" y="61" width="11" height="16">
<path d="M69.7792 69.3363C69.7792 73.5252 68.0973 76.9218 65.367 76.9218C62.6366 76.9218 59.8901 73.5252 59.8901 69.3363C59.8901 65.1474 62.6366 61.7507 65.367 61.7507C68.0973 61.7507 69.7792 65.1474 69.7792 69.3363Z" fill="white"/>
</mask>
<g mask="url(#mask0_190_1579)">
<path d="M69.7792 69.3363C69.7792 73.5252 68.0973 76.9218 65.367 76.9218C62.6366 76.9218 59.8901 73.5252 59.8901 69.3363C59.8901 65.1474 62.6366 61.7507 65.367 61.7507C68.0973 61.7507 69.7792 65.1474 69.7792 69.3363Z" fill="white"/>
<path d="M67.6605 65.7366C67.6605 68.5144 66.5453 70.7681 64.7338 70.7681C62.9224 70.7681 61.1008 68.5164 61.1008 65.7366C61.1008 62.9568 62.9224 60.7051 64.7338 60.7051C66.5453 60.7051 67.6605 62.9568 67.6605 65.7366Z" fill="black"/>
</g>
<mask id="mask1_190_1579" style="mask-type:luminance" maskUnits="userSpaceOnUse" x="47" y="61" width="11" height="16">
<path d="M57.6726 69.3363C57.6726 73.5252 55.9907 76.9218 53.2604 76.9218C50.5301 76.9218 47.7836 73.5252 47.7836 69.3363C47.7836 65.1474 50.5301 61.7507 53.2604 61.7507C55.9907 61.7507 57.6726 65.1474 57.6726 69.3363Z" fill="white"/>
</mask>
<g mask="url(#mask1_190_1579)">
<path d="M57.6726 69.3363C57.6726 73.5252 55.9907 76.9218 53.2604 76.9218C50.5301 76.9218 47.7836 73.5252 47.7836 69.3363C47.7836 65.1474 50.5301 61.7507 53.2604 61.7507C55.9907 61.7507 57.6726 65.1474 57.6726 69.3363Z" fill="white"/>
<path d="M55.5539 65.7366C55.5539 68.5144 54.4387 70.7681 52.6273 70.7681C50.8158 70.7681 48.9943 68.5164 48.9943 65.7366C48.9943 62.9568 50.8158 60.7051 52.6273 60.7051C54.4387 60.7051 55.5539 62.9568 55.5539 65.7366Z" fill="black"/>
</g>
<path d="M108.29 260.006C104.377 253.473 98.6241 247.66 93.3107 242.047C86.448 234.986 79.2991 227.462 69.8263 224.347C56.5938 219.817 42.6532 228.863 42.014 242.854C41.61 254.34 50.033 263.22 58.2095 270.417C61.2902 273.117 64.4463 275.729 67.6202 278.322C73.1001 282.755 78.793 287.169 85.2162 289.669C89.4776 291.334 94.2162 292.048 98.6951 290.998C103.722 289.868 108.143 286.453 110.478 281.875C114.127 274.821 112.374 266.741 108.312 260.043L108.29 260.006Z" fill="#34C759"/>
<mask id="mask2_190_1579" style="mask-type:luminance" maskUnits="userSpaceOnUse" x="59" y="233" width="12" height="18">
<path d="M70.1322 241.925C70.1322 246.517 68.2884 250.24 65.2952 250.24C62.3021 250.24 59.2911 246.517 59.2911 241.925C59.2911 237.332 62.3021 233.609 65.2952 233.609C68.2884 233.609 70.1322 237.332 70.1322 241.925Z" fill="white"/>
</mask>
<g mask="url(#mask2_190_1579)">
<path d="M70.1322 241.925C70.1322 246.517 68.2884 250.24 65.2952 250.24C62.3021 250.24 59.2911 246.517 59.2911 241.925C59.2911 237.332 62.3021 233.609 65.2952 233.609C68.2884 233.609 70.1322 237.332 70.1322 241.925Z" fill="white"/>
<path d="M65.155 241.96C65.155 245.005 63.9325 247.476 61.9466 247.476C59.9608 247.476 57.9639 245.007 57.9639 241.96C57.9639 238.912 59.9608 236.444 61.9466 236.444C63.9325 236.444 65.155 238.912 65.155 241.96Z" fill="black"/>
</g>
<mask id="mask3_190_1579" style="mask-type:luminance" maskUnits="userSpaceOnUse" x="46" y="233" width="11" height="18">
<path d="M56.86 241.925C56.86 246.517 55.0162 250.24 52.023 250.24C49.0298 250.24 46.0189 246.517 46.0189 241.925C46.0189 237.332 49.0298 233.609 52.023 233.609C55.0162 233.609 56.86 237.332 56.86 241.925Z" fill="white"/>
</mask>
<g mask="url(#mask3_190_1579)">
<path d="M56.86 241.925C56.86 246.517 55.0162 250.24 52.023 250.24C49.0298 250.24 46.0189 246.517 46.0189 241.925C46.0189 237.332 49.0298 233.609 52.023 233.609C55.0162 233.609 56.86 237.332 56.86 241.925Z" fill="white"/>
<path d="M51.8828 241.96C51.8828 245.005 50.6603 247.476 48.6744 247.476C46.6886 247.476 44.6917 245.007 44.6917 241.96C44.6917 238.912 46.6886 236.444 48.6744 236.444C50.6603 236.444 51.8828 238.912 51.8828 241.96Z" fill="black"/>
</g>
<path d="M266.71 97.0056C270.623 90.4734 276.376 84.6596 281.689 79.0469C288.552 71.9864 295.701 64.4616 305.174 61.3469C318.406 56.8175 332.347 65.8631 332.986 79.8538C333.39 91.3399 324.967 100.22 316.79 107.417C313.71 110.116 310.554 112.729 307.38 115.322C301.9 119.755 296.207 124.169 289.784 126.669C285.522 128.334 280.784 129.048 276.305 127.998C271.278 126.868 266.857 123.453 264.522 118.875C260.873 111.821 262.626 103.741 266.688 97.0432L266.71 97.0056Z" fill="#0088FF"/>
<mask id="mask4_190_1579" style="mask-type:luminance" maskUnits="userSpaceOnUse" x="304" y="70" width="12" height="18">
<path d="M304.868 78.9245C304.868 83.5167 306.712 87.2404 309.705 87.2404C312.698 87.2404 315.709 83.5167 315.709 78.9245C315.709 74.3324 312.698 70.6087 309.705 70.6087C306.712 70.6087 304.868 74.3324 304.868 78.9245Z" fill="white"/>
</mask>
<g mask="url(#mask4_190_1579)">
<path d="M304.868 78.9245C304.868 83.5167 306.712 87.2404 309.705 87.2404C312.698 87.2404 315.709 83.5167 315.709 78.9245C315.709 74.3324 312.698 70.6087 309.705 70.6087C306.712 70.6087 304.868 74.3324 304.868 78.9245Z" fill="white"/>
<path d="M309.845 78.9599C309.845 82.0051 311.068 84.4758 313.053 84.4758C315.039 84.4758 317.036 82.0073 317.036 78.9599C317.036 75.9124 315.039 73.444 313.053 73.444C311.068 73.444 309.845 75.9124 309.845 78.9599Z" fill="black"/>
</g>
<mask id="mask5_190_1579" style="mask-type:luminance" maskUnits="userSpaceOnUse" x="318" y="70" width="11" height="18">
<path d="M318.14 78.9245C318.14 83.5167 319.984 87.2404 322.977 87.2404C325.97 87.2404 328.981 83.5167 328.981 78.9245C328.981 74.3324 325.97 70.6087 322.977 70.6087C319.984 70.6087 318.14 74.3324 318.14 78.9245Z" fill="white"/>
</mask>
<g mask="url(#mask5_190_1579)">
<path d="M318.14 78.9245C318.14 83.5167 319.984 87.2404 322.977 87.2404C325.97 87.2404 328.981 83.5167 328.981 78.9245C328.981 74.3324 325.97 70.6087 322.977 70.6087C319.984 70.6087 318.14 74.3324 318.14 78.9245Z" fill="white"/>
<path d="M323.117 78.9599C323.117 82.0051 324.34 84.4758 326.326 84.4758C328.311 84.4758 330.308 82.0073 330.308 78.9599C330.308 75.9124 328.311 73.444 326.326 73.444C324.34 73.444 323.117 75.9124 323.117 78.9599Z" fill="black"/>
</g>
<path d="M214.491 194.513C217.392 199.355 221.656 203.665 225.594 207.825C230.681 213.058 235.98 218.636 243.002 220.945C252.81 224.302 263.143 217.597 263.617 207.227C263.917 198.713 257.673 192.131 251.612 186.796C249.329 184.795 246.99 182.858 244.637 180.936C240.575 177.651 236.355 174.379 231.594 172.526C228.436 171.292 224.923 170.763 221.603 171.541C217.877 172.378 214.6 174.91 212.869 178.303C210.164 183.532 211.464 189.521 214.475 194.486L214.491 194.513Z" fill="#FFCC00"/>
<mask id="mask6_190_1579" style="mask-type:luminance" maskUnits="userSpaceOnUse" x="242" y="201" width="9" height="14">
<path d="M242.775 207.916C242.775 204.512 244.142 201.752 246.36 201.752C248.579 201.752 250.811 204.512 250.811 207.916C250.811 211.32 248.579 214.08 246.36 214.08C244.142 214.08 242.775 211.32 242.775 207.916Z" fill="white"/>
</mask>
<g mask="url(#mask6_190_1579)">
<path d="M242.775 207.916C242.775 204.512 244.142 201.752 246.36 201.752C248.579 201.752 250.811 204.512 250.811 207.916C250.811 211.32 248.579 214.08 246.36 214.08C244.142 214.08 242.775 211.32 242.775 207.916Z" fill="white"/>
<path d="M244.497 210.841C244.497 208.584 245.403 206.752 246.875 206.752C248.347 206.752 249.827 208.582 249.827 210.841C249.827 213.1 248.347 214.929 246.875 214.929C245.403 214.929 244.497 213.1 244.497 210.841Z" fill="black"/>
</g>
<mask id="mask7_190_1579" style="mask-type:luminance" maskUnits="userSpaceOnUse" x="252" y="201" width="9" height="14">
<path d="M252.613 207.916C252.613 204.512 253.979 201.752 256.198 201.752C258.417 201.752 260.649 204.512 260.649 207.916C260.649 211.32 258.417 214.08 256.198 214.08C253.979 214.08 252.613 211.32 252.613 207.916Z" fill="white"/>
</mask>
<g mask="url(#mask7_190_1579)">
<path d="M252.613 207.916C252.613 204.512 253.979 201.752 256.198 201.752C258.417 201.752 260.649 204.512 260.649 207.916C260.649 211.32 258.417 214.08 256.198 214.08C253.979 214.08 252.613 211.32 252.613 207.916Z" fill="white"/>
<path d="M254.334 210.841C254.334 208.584 255.241 206.752 256.713 206.752C258.185 206.752 259.665 208.582 259.665 210.841C259.665 213.1 258.185 214.929 256.713 214.929C255.241 214.929 254.334 213.1 254.334 210.841Z" fill="black"/>
</g>
<path d="M0.0750273 59.6504L39.9763 48.922L39.8351 94.2487L76.3249 84.4413L76.4661 39.1146L116.367 28.3862L116.292 156.755L76.3911 167.479L76.3469 121.47L39.8572 131.282L39.9013 177.291L0 188.015L0.0750273 59.6504Z" fill="white"/>
<path d="M161.15 104.357C163.67 111.747 169.774 115.427 178.468 113.084C184.775 111.388 190.062 107.218 195.217 100.514L218.374 115.373C210.315 127.625 198.906 136.923 182.537 141.324C154.23 148.936 132.406 137.016 125.874 112.553C121.853 97.4987 123.8 80.8416 131.541 67.3901C138.779 54.8109 150.606 45.03 167.315 40.5359C198.01 32.287 213.815 50.4053 219.067 70.0777C220.713 76.2367 221.287 82.4975 221 88.2624L161.15 104.353V104.357ZM158.965 86.6109L185.225 79.5531C185.37 78.0477 185.176 76.6308 184.81 75.2626C183.437 70.1309 178.411 66.3496 172.099 68.0454C168.52 69.0062 164.623 71.5212 162.002 76.0773C160.378 78.8978 159.279 82.3116 158.965 86.6109Z" fill="white"/>
<path d="M216.507 29.7012L255.724 19.1588L272.076 67.3857L286.759 10.817L327 0L293.613 105.601C284.994 132.854 273.113 144.481 252.648 149.985C240.542 153.239 231.331 152.965 223.153 150.397L230.528 117.795C237.206 120.217 242.736 120.381 247.506 119.097C249.722 118.499 251.509 117.654 253.372 116.423L216.502 29.7057L216.507 29.7012Z" fill="white"/>
<path d="M76.4616 176.631L116.363 165.907L116.222 211.234L152.711 201.422L152.853 156.095L192.754 145.367L192.679 273.736L152.778 284.46L152.734 238.451L116.244 248.259L116.288 294.267L76.3866 304.996L76.4616 176.627V176.631Z" fill="white"/>
<path d="M202.472 226.917C198.633 212.544 200.945 197.256 208.311 184.459C215.549 171.876 227.673 161.834 243.702 157.525C273.029 149.64 295.369 164.172 301.857 188.462C305.697 202.834 303.38 218.123 296.018 230.92C288.78 243.499 276.657 253.545 260.627 257.853C231.3 265.739 208.96 251.207 202.472 226.917ZM263.902 218.106C266.771 213.116 267.561 206.487 265.826 199.987C263.725 192.119 257.273 187.802 249.77 189.817C245.679 190.915 242.555 193.589 240.432 197.278C237.559 202.268 236.773 208.896 238.507 215.396C240.608 223.264 247.061 227.581 254.563 225.566C258.654 224.468 261.779 221.794 263.902 218.106Z" fill="white"/>
<path d="M301.55 279.508C300.81 279.706 300.145 279.647 299.556 279.33C298.965 279.007 298.581 278.513 298.403 277.849C298.225 277.185 298.312 276.568 298.664 276C299.014 275.424 299.559 275.037 300.299 274.839C301.039 274.64 301.705 274.703 302.296 275.026C302.885 275.343 303.268 275.834 303.446 276.498C303.624 277.162 303.538 277.782 303.188 278.357C302.836 278.926 302.29 279.309 301.55 279.508Z" fill="white"/>
<path d="M289.321 282.885C287.73 283.311 286.288 283.438 284.997 283.265C283.703 283.085 282.621 282.63 281.75 281.899C280.88 281.169 280.278 280.181 279.944 278.936L279.939 278.915C279.607 277.677 279.639 276.523 280.034 275.453C280.43 274.383 281.139 273.448 282.163 272.647C283.193 271.845 284.501 271.231 286.085 270.807C287.669 270.382 289.108 270.26 290.401 270.44C291.695 270.62 292.777 271.075 293.648 271.805C294.525 272.534 295.13 273.518 295.461 274.756L295.467 274.777C295.801 276.022 295.773 277.178 295.385 278.246C294.996 279.314 294.286 280.249 293.256 281.052C292.224 281.847 290.912 282.458 289.321 282.885ZM288.426 279.544C288.965 279.399 289.404 279.17 289.743 278.857C290.08 278.537 290.302 278.148 290.409 277.689C290.522 277.228 290.503 276.714 290.351 276.147L290.346 276.126C290.194 275.559 289.954 275.108 289.627 274.773C289.299 274.431 288.908 274.206 288.456 274.097C288.005 273.988 287.513 274.005 286.98 274.148C286.447 274.291 286.009 274.523 285.665 274.845C285.328 275.165 285.103 275.555 284.989 276.016C284.88 276.468 284.902 276.977 285.054 277.544L285.06 277.565C285.212 278.132 285.449 278.588 285.77 278.932C286.099 279.274 286.49 279.499 286.941 279.608C287.398 279.708 287.893 279.686 288.426 279.544Z" fill="white"/>
<path d="M261.193 290.099L257.182 275.126L262.38 273.733L263.854 279.233L271.542 277.172L270.069 271.673L275.267 270.28L279.279 285.253L274.081 286.646L272.574 281.022L264.885 283.082L266.392 288.706L261.193 290.099Z" fill="white"/>
<path d="M242.892 299.162C242.401 299.294 241.934 299.389 241.49 299.449C241.053 299.507 240.665 299.54 240.327 299.549L239.454 296.291C239.725 296.278 240.02 296.247 240.341 296.198C240.661 296.149 240.974 296.084 241.278 296.002C241.728 295.882 242.107 295.721 242.417 295.519C242.735 295.323 242.953 295.101 243.072 294.854L243.116 294.687L234.782 284.876L240.074 283.458L245.509 290.832L244.676 290.254L245.506 290.032L245.073 290.949L245.906 281.895L251.063 280.513L249.185 292.016C248.94 293.401 248.569 294.56 248.071 295.495C247.572 296.429 246.9 297.187 246.055 297.77C245.219 298.357 244.165 298.821 242.892 299.162Z" fill="white"/>
<path d="M227.1 299.412C226.091 299.683 225.177 299.775 224.361 299.69C223.545 299.605 222.862 299.35 222.311 298.927C221.767 298.502 221.393 297.909 221.189 297.148L221.186 297.138C221.003 296.453 221.027 295.809 221.258 295.206C221.494 294.594 221.975 294.035 222.699 293.529C223.431 293.022 224.443 292.58 225.736 292.204L232.139 290.366L232.734 292.587L227.234 294.183C226.719 294.336 226.358 294.525 226.152 294.751C225.943 294.97 225.877 295.221 225.953 295.505L225.956 295.515C226.053 295.875 226.29 296.096 226.668 296.18C227.047 296.264 227.513 296.232 228.066 296.084C228.626 295.934 229.091 295.731 229.46 295.477C229.829 295.222 230.085 294.931 230.227 294.604C230.374 294.268 230.399 293.917 230.301 293.55L229.558 290.78C229.442 290.344 229.17 290.05 228.744 289.897C228.317 289.744 227.761 289.76 227.077 289.943C226.482 290.103 226.045 290.312 225.766 290.572C225.486 290.826 225.33 291.104 225.301 291.409L225.302 291.497L220.633 292.749L220.62 292.619C220.559 291.782 220.722 290.993 221.11 290.252C221.497 289.511 222.126 288.845 222.999 288.256C223.87 287.659 224.993 287.176 226.37 286.807C227.829 286.416 229.13 286.261 230.271 286.341C231.412 286.42 232.35 286.729 233.087 287.265C233.831 287.8 234.334 288.555 234.595 289.53L236.519 296.71L231.507 298.053L231.049 296.341L230.955 296.366C230.803 296.822 230.554 297.249 230.208 297.645C229.867 298.033 229.433 298.379 228.907 298.683C228.387 298.986 227.785 299.229 227.1 299.412Z" fill="white"/>
<path d="M213.772 303.128C212.25 303.536 210.909 303.732 209.748 303.717C208.586 303.695 207.629 303.484 206.877 303.085C206.125 302.686 205.605 302.117 205.318 301.378L205.28 301.277L210.16 299.981L210.187 300.041C210.39 300.357 210.73 300.533 211.207 300.568C211.69 300.602 212.306 300.518 213.053 300.318C213.475 300.205 213.822 300.078 214.096 299.938C214.377 299.796 214.578 299.646 214.698 299.488C214.826 299.328 214.866 299.158 214.818 298.978L214.815 298.967C214.754 298.739 214.594 298.6 214.336 298.551C214.078 298.501 213.64 298.526 213.022 298.625L209.906 299.159C208.862 299.328 207.967 299.353 207.224 299.233C206.48 299.114 205.877 298.856 205.415 298.461C204.959 298.057 204.642 297.526 204.466 296.869L204.463 296.859C204.241 296.029 204.318 295.252 204.695 294.528C205.072 293.804 205.721 293.156 206.643 292.583C207.564 292.01 208.727 291.535 210.131 291.159C211.598 290.766 212.879 290.593 213.974 290.641C215.074 290.679 215.972 290.906 216.669 291.32C217.366 291.733 217.843 292.31 218.1 293.049L218.133 293.129L213.557 294.356L213.519 294.299C213.376 294.011 213.083 293.834 212.643 293.766C212.202 293.699 211.639 293.757 210.955 293.941C210.533 294.054 210.185 294.18 209.911 294.32C209.637 294.461 209.441 294.613 209.322 294.779C209.203 294.944 209.168 295.116 209.216 295.296L209.219 295.307C209.259 295.459 209.338 295.571 209.454 295.644C209.576 295.715 209.757 295.752 209.995 295.755C210.24 295.756 210.562 295.725 210.96 295.663L214.187 295.088C215.867 294.8 217.137 294.838 217.998 295.201C218.859 295.563 219.416 296.218 219.67 297.166L219.676 297.187C219.904 298.037 219.819 298.842 219.422 299.601C219.03 300.351 218.355 301.029 217.398 301.634C216.447 302.237 215.239 302.735 213.772 303.128Z" fill="white"/>
<path d="M189.482 309.637C188.43 309.918 187.48 309.969 186.631 309.789C185.78 309.602 185.059 309.194 184.468 308.567C183.876 307.932 183.439 307.089 183.157 306.038L181.325 299.2L186.347 297.854L187.881 303.582C188.096 304.384 188.448 304.95 188.937 305.279C189.43 305.599 190.043 305.66 190.777 305.464C191.15 305.364 191.471 305.219 191.739 305.028C192.005 304.831 192.213 304.597 192.363 304.327C192.518 304.048 192.609 303.738 192.636 303.398C192.664 303.057 192.623 302.686 192.516 302.284L190.995 296.609L196.017 295.263L199.092 306.739L194.07 308.085L193.484 305.895L193.38 305.923C193.268 306.502 193.048 307.035 192.719 307.524C192.388 308.005 191.953 308.429 191.414 308.796C190.88 309.154 190.236 309.435 189.482 309.637Z" fill="white"/>
<path d="M174.913 313.54C173.322 313.966 171.881 314.093 170.589 313.92C169.295 313.741 168.213 313.285 167.343 312.555C166.472 311.824 165.87 310.836 165.537 309.591L165.531 309.57C165.199 308.332 165.231 307.178 165.627 306.108C166.022 305.039 166.732 304.103 167.755 303.303C168.786 302.5 170.093 301.887 171.677 301.462C173.261 301.038 174.7 300.915 175.994 301.095C177.288 301.275 178.37 301.73 179.24 302.461C180.117 303.189 180.722 304.173 181.054 305.411L181.059 305.432C181.393 306.677 181.366 307.834 180.977 308.902C180.589 309.969 179.879 310.905 178.848 311.707C177.816 312.503 176.504 313.114 174.913 313.54ZM174.018 310.199C174.558 310.054 174.997 309.826 175.336 309.512C175.672 309.192 175.894 308.803 176.001 308.344C176.115 307.884 176.096 307.37 175.944 306.803L175.938 306.782C175.786 306.215 175.547 305.764 175.22 305.429C174.891 305.087 174.501 304.861 174.049 304.753C173.597 304.644 173.105 304.661 172.572 304.803C172.04 304.946 171.602 305.178 171.258 305.5C170.921 305.82 170.696 306.211 170.582 306.671C170.473 307.123 170.495 307.633 170.647 308.2L170.652 308.221C170.804 308.788 171.041 309.243 171.363 309.587C171.692 309.929 172.082 310.154 172.534 310.263C172.991 310.363 173.485 310.342 174.018 310.199Z" fill="white"/>
<path d="M156.851 318.057L155.555 313.222L145.98 304.922L151.646 303.404L156.998 308.398L157.102 308.37L159.241 301.369L164.906 299.851L160.754 311.829L162.049 316.665L156.851 318.057Z" fill="white"/>
<path d="M145.678 324.877L144.841 317.605L149.241 316.427L149.029 323.979L145.678 324.877Z" fill="white"/>
<path d="M134.15 328.299C133.659 328.431 133.191 328.527 132.748 328.586C132.311 328.644 131.923 328.677 131.585 328.687L130.712 325.428C130.982 325.415 131.278 325.384 131.599 325.335C131.919 325.287 132.232 325.221 132.536 325.14C132.986 325.019 133.365 324.858 133.674 324.657C133.993 324.46 134.211 324.239 134.33 323.992L134.374 323.824L126.04 314.013L131.332 312.595L136.767 319.969L135.934 319.392L136.764 319.169L136.331 320.086L137.164 311.033L142.321 309.651L140.443 321.153C140.198 322.538 139.827 323.698 139.328 324.632C138.83 325.566 138.158 326.325 137.313 326.907C136.477 327.494 135.423 327.958 134.15 328.299Z" fill="white"/>
<path d="M121.393 327.881C119.809 328.305 118.38 328.436 117.105 328.273C115.829 328.104 114.757 327.657 113.888 326.934C113.027 326.208 112.426 325.212 112.087 323.946L112.084 323.936C111.745 322.67 111.769 321.5 112.155 320.425C112.549 319.348 113.248 318.416 114.253 317.628C115.258 316.839 116.511 316.244 118.012 315.842C119.547 315.43 120.947 315.33 122.212 315.539C123.475 315.742 124.538 316.225 125.402 316.987C126.265 317.742 126.863 318.745 127.199 319.997L127.43 320.858L114.955 324.19L114.34 321.897L123.523 319.436L122.605 321.406L122.4 320.638C122.257 320.106 122.027 319.678 121.711 319.355C121.393 319.025 121.003 318.814 120.541 318.723C120.077 318.625 119.548 318.655 118.953 318.815C118.351 318.976 117.859 319.215 117.477 319.533C117.102 319.848 116.852 320.23 116.728 320.679C116.603 321.127 116.617 321.635 116.769 322.203L116.969 322.95C117.14 323.586 117.401 324.076 117.752 324.419C118.109 324.754 118.54 324.953 119.047 325.018C119.551 325.075 120.122 325.019 120.758 324.848C121.153 324.742 121.5 324.601 121.801 324.424C122.102 324.247 122.35 324.051 122.545 323.836C122.746 323.619 122.886 323.396 122.966 323.167L122.983 323.106L127.549 321.883L127.558 322.003C127.569 322.623 127.438 323.229 127.167 323.82C126.9 324.403 126.503 324.955 125.975 325.474C125.447 325.994 124.797 326.457 124.023 326.865C123.259 327.277 122.382 327.616 121.393 327.881Z" fill="white"/>
<path d="M93.328 335.078L89.316 320.106L94.5145 318.713L95.988 324.212L103.677 322.152L102.203 316.652L107.402 315.26L111.414 330.232L106.215 331.625L104.708 326.001L97.0195 328.062L98.5264 333.685L93.328 335.078Z" fill="white"/>
<path d="M75.0268 344.141C74.5356 344.273 74.0682 344.369 73.6245 344.428C73.1877 344.486 72.8 344.519 72.4614 344.529L71.5884 341.27C71.8592 341.257 72.1548 341.226 72.4754 341.177C72.7959 341.129 73.1084 341.063 73.4128 340.982C73.8624 340.861 74.2419 340.7 74.5512 340.499C74.8692 340.302 75.0879 340.081 75.207 339.834L75.2511 339.666L66.9171 329.855L72.209 328.437L77.6435 335.811L76.8104 335.234L77.6404 335.011L77.2077 335.928L78.0404 326.875L83.1973 325.493L81.3192 336.995C81.075 338.38 80.7037 339.54 80.2052 340.474C79.7067 341.408 79.035 342.167 78.1901 342.749C77.354 343.336 76.2996 343.8 75.0268 344.141Z" fill="white"/>
<path d="M59.235 344.391C58.225 344.662 57.312 344.755 56.4958 344.669C55.6797 344.584 54.9962 344.33 54.4453 343.907C53.9014 343.481 53.5275 342.888 53.3236 342.128L53.3208 342.117C53.1373 341.432 53.1612 340.788 53.3925 340.185C53.6289 339.573 54.1094 339.014 54.834 338.509C55.5655 338.001 56.5777 337.56 57.8708 337.184L64.2734 335.346L64.8684 337.566L59.3685 339.162C58.8534 339.315 58.4926 339.504 58.2863 339.73C58.078 339.949 58.0119 340.2 58.0879 340.484L58.0906 340.494C58.187 340.854 58.4244 341.076 58.8028 341.16C59.1812 341.244 59.647 341.212 60.2004 341.063C60.7608 340.913 61.2255 340.711 61.5947 340.456C61.9639 340.202 62.2196 339.911 62.3618 339.583C62.509 339.247 62.5335 338.896 62.4352 338.529L61.6929 335.759C61.5761 335.323 61.3045 335.029 60.8781 334.876C60.4516 334.724 59.896 334.739 59.2112 334.923C58.6163 335.082 58.1795 335.292 57.9007 335.552C57.62 335.805 57.4649 336.084 57.4353 336.388L57.4368 336.477L52.7675 337.728L52.7549 337.598C52.6939 336.762 52.857 335.973 53.244 335.231C53.6311 334.49 54.2609 333.825 55.1335 333.235C56.0042 332.638 57.1278 332.156 58.5044 331.787C59.964 331.396 61.2642 331.24 62.4051 331.32C63.5461 331.4 64.485 331.708 65.2219 332.244C65.9657 332.779 66.4682 333.534 66.7296 334.51L68.6536 341.69L63.6419 343.033L63.1831 341.321L63.0897 341.346C62.9376 341.802 62.6885 342.228 62.3426 342.625C62.0017 343.013 61.568 343.359 61.0415 343.663C60.522 343.965 59.9198 344.208 59.235 344.391Z" fill="white"/>
<path d="M45.9067 348.107C44.3848 348.515 43.0436 348.711 41.8829 348.696C40.7204 348.674 39.7631 348.463 39.0112 348.064C38.2592 347.665 37.7398 347.097 37.4529 346.358L37.4147 346.257L42.2943 344.96L42.3214 345.02C42.5247 345.336 42.8647 345.512 43.3413 345.547C43.8247 345.581 44.44 345.498 45.1871 345.297C45.6091 345.184 45.957 345.058 46.2308 344.918C46.5116 344.776 46.7123 344.626 46.833 344.467C46.9606 344.307 47.0003 344.137 46.9521 343.957L46.9493 343.947C46.8882 343.718 46.7286 343.58 46.4707 343.53C46.2127 343.481 45.7745 343.505 45.156 343.604L42.0407 344.139C40.9961 344.307 40.1019 344.332 39.3581 344.213C38.6143 344.093 38.0115 343.836 37.5497 343.44C37.093 343.036 36.7766 342.506 36.6005 341.849L36.5978 341.838C36.3753 341.008 36.4526 340.231 36.8295 339.507C37.2065 338.784 37.8557 338.135 38.7772 337.562C39.6987 336.989 40.8615 336.514 42.2657 336.138C43.7322 335.745 45.0131 335.572 46.1083 335.62C47.2086 335.659 48.107 335.885 48.8036 336.299C49.5002 336.713 49.9772 337.289 50.2346 338.029L50.2672 338.109L45.6913 339.335L45.6539 339.278C45.5101 338.991 45.2179 338.813 44.7772 338.746C44.3366 338.678 43.7739 338.737 43.0891 338.92C42.6671 339.033 42.3192 339.16 42.0453 339.3C41.7715 339.44 41.5751 339.593 41.4563 339.758C41.3375 339.923 41.3022 340.096 41.3504 340.276L41.3532 340.286C41.3939 340.438 41.4723 340.551 41.5881 340.623C41.7109 340.694 41.8914 340.731 42.1294 340.734C42.3744 340.735 42.6961 340.705 43.0946 340.642L46.3212 340.067C48.0014 339.78 49.2719 339.818 50.1327 340.18C50.9935 340.542 51.5508 341.198 51.8048 342.145L51.8103 342.166C52.0383 343.017 51.9537 343.822 51.5565 344.581C51.1644 345.331 50.4896 346.008 49.5322 346.613C48.5817 347.216 47.3732 347.714 45.9067 348.107Z" fill="white"/>
<path d="M25.717 353.195L21.7051 338.222L26.9035 336.829L30.9155 351.802L25.717 353.195Z" fill="white"/>
</svg>
